<?xml version="1.0" ?><svg fill="none" height="64" viewBox="0 0 64 64" width="64" xmlns="http://www.w3.org/2000/svg"><path clip-rule="evenodd" d="M19.5755 17.5113C19.5755 16.6828 20.2471 16.0113 21.0755 16.0113H42.9245C43.7529 16.0113 44.4245 16.6828 44.4245 17.5113V46.4887C44.4245 47.0396 44.1225 47.5461 43.638 47.8082C43.1535 48.0702 42.5643 48.0455 42.1033 47.744L32 41.1343L21.8967 47.744C21.4358 48.0455 20.8466 48.0702 20.362 47.8082C19.8775 47.5461 19.5755 47.0396 19.5755 46.4887V17.5113ZM22.5755 19.0113V43.7149L31.1788 38.0866C31.6776 37.7602 32.3224 37.7602 32.8212 38.0866L41.4245 43.7149V19.0113H22.5755Z" fill="black" fill-rule="evenodd"/></svg>