<?xml version="1.0" ?><svg fill="none" height="64" viewBox="0 0 64 64" width="64" xmlns="http://www.w3.org/2000/svg"><path d="M27.3889 13.0139C26.5605 13.0139 25.8889 13.6855 25.8889 14.5139C25.8889 15.3423 26.5605 16.0139 27.3889 16.0139H36.6389C37.4673 16.0139 38.1389 15.3423 38.1389 14.5139C38.1389 13.6855 37.4673 13.0139 36.6389 13.0139H27.3889Z" fill="black"/><path clip-rule="evenodd" d="M11.5 20C11.5 19.1716 12.1716 18.5 13 18.5H51C51.8284 18.5 52.5 19.1716 52.5 20V27C52.5 27.8284 51.8284 28.5 51 28.5H13C12.1716 28.5 11.5 27.8284 11.5 27V20ZM14.5 21.5H26.5V25.5H14.5V21.5ZM34.5 25.5H29.5V21.5H34.5V25.5ZM37.5 25.5V21.5H49.5V25.5H37.5Z" fill="black" fill-rule="evenodd"/><path d="M14.5 50V30H17.5V48.5H26.5V30H29.5V48.5H34.5V30H37.5L37.5 48.5H46.5V30H49.5V50C49.5 50.8284 48.8284 51.5 48 51.5H16C15.1716 51.5 14.5 50.8284 14.5 50Z" fill="black"/></svg>