<?xml version="1.0" ?><svg fill="none" height="64" viewBox="0 0 64 64" width="64" xmlns="http://www.w3.org/2000/svg"><path clip-rule="evenodd" d="M32 18.5C28.4101 18.5 25.5 21.4101 25.5 25C25.5 28.5899 28.4101 31.5 32 31.5C35.5899 31.5 38.5 28.5899 38.5 25C38.5 21.4101 35.5899 18.5 32 18.5ZM28.5 25C28.5 23.067 30.067 21.5 32 21.5C33.933 21.5 35.5 23.067 35.5 25C35.5 26.933 33.933 28.5 32 28.5C30.067 28.5 28.5 26.933 28.5 25Z" fill="black" fill-rule="evenodd"/><path clip-rule="evenodd" d="M32 45L33.1164 46.0018C32.8319 46.3189 32.426 46.5 32 46.5C31.574 46.5 31.1677 46.3185 30.8832 46.0014L30.8729 45.9899L30.8452 45.9588C30.8212 45.9318 30.7861 45.8923 30.7407 45.8409C30.65 45.7381 30.5181 45.5878 30.3508 45.3949C30.0165 45.009 29.5405 44.4524 28.9701 43.7642C27.8307 42.3895 26.3081 40.4828 24.7822 38.3611C23.2603 36.2448 21.7136 33.885 20.5413 31.6074C19.394 29.3784 18.5 27.0321 18.5 25C18.5 17.5442 24.5442 11.5 32 11.5C39.4558 11.5 45.5 17.5442 45.5 25C45.5 27.0321 44.606 29.3784 43.4587 31.6074C42.2864 33.885 40.7397 36.2448 39.2178 38.3611C37.6919 40.4828 36.1693 42.3895 35.0299 43.7642C34.4595 44.4524 33.9835 45.009 33.6492 45.3949C33.4819 45.5878 33.35 45.7381 33.2593 45.8409L33.203 45.9046L33.1548 45.9588L33.1271 45.9899L33.1174 46.0007C33.1174 46.0007 33.1164 46.0018 32 45ZM32 14.5C26.201 14.5 21.5 19.201 21.5 25C21.5 26.2816 22.106 28.0922 23.2087 30.2345C24.2864 32.3282 25.7397 34.5542 27.2178 36.6095C28.6919 38.6594 30.1693 40.51 31.2799 41.8497C31.5424 42.1665 31.7841 42.4543 32 42.7089C32.2159 42.4543 32.4576 42.1665 32.7201 41.8497C33.8307 40.51 35.3081 38.6594 36.7822 36.6095C38.2603 34.5542 39.7136 32.3282 40.7913 30.2345C41.894 28.0922 42.5 26.2816 42.5 25C42.5 19.201 37.799 14.5 32 14.5ZM30.8832 46.0014C30.8832 46.0014 30.8836 46.0018 32 45L30.8832 46.0014Z" fill="black" fill-rule="evenodd"/><path d="M42.9554 35.5C42.3132 36.5274 41.6362 37.5368 40.9594 38.5H42.8921L45.9691 48.5H18.0309L21.1079 38.5H23.0406C22.3638 37.5368 21.6868 36.5274 21.0446 35.5H20C19.3415 35.5 18.76 35.9295 18.5663 36.5589L14.5663 49.5589C14.4263 50.0138 14.5106 50.5082 14.7934 50.8912C15.0762 51.2741 15.524 51.5 16 51.5H48C48.476 51.5 48.9238 51.2741 49.2066 50.8912C49.4894 50.5082 49.5737 50.0138 49.4337 49.5589L45.4337 36.5589C45.24 35.9295 44.6585 35.5 44 35.5H42.9554Z" fill="black"/></svg>