<?xml version="1.0" ?><svg fill="none" height="64" viewBox="0 0 64 64" width="64" xmlns="http://www.w3.org/2000/svg"><path clip-rule="evenodd" d="M24.0114 22.4886C24.0114 18.0766 27.588 14.5 32 14.5C36.412 14.5 39.9886 18.0766 39.9886 22.4886V28.9772C39.9886 33.3892 36.412 36.9658 32 36.9658C27.588 36.9658 24.0114 33.3892 24.0114 28.9772V22.4886ZM32 17.5C29.2449 17.5 27.0114 19.7335 27.0114 22.4886V28.9772C27.0114 31.7324 29.2449 33.9658 32 33.9658C34.7551 33.9658 36.9886 31.7324 36.9886 28.9772V22.4886C36.9886 19.7335 34.7551 17.5 32 17.5Z" fill="black" fill-rule="evenodd"/><path d="M33.5 42.4814C35.7183 42.2037 37.7497 41.3185 39.4191 39.9983C40.0689 39.4845 40.179 38.5411 39.6652 37.8913C39.1513 37.2415 38.208 37.1314 37.5582 37.6452C36.0298 38.8539 34.1011 39.5746 32 39.5746C29.8989 39.5746 27.9702 38.8539 26.4418 37.6452C25.7921 37.1314 24.8487 37.2415 24.3348 37.8913C23.821 38.5411 23.9312 39.4845 24.581 39.9983C26.2503 41.3185 28.2817 42.2037 30.5 42.4814L30.5 48C30.5 48.8285 31.1716 49.5 32 49.5C32.8284 49.5 33.5 48.8285 33.5 48V42.4814Z" fill="black"/></svg>