<?xml version="1.0" ?><svg fill="none" height="64" viewBox="0 0 64 64" width="64" xmlns="http://www.w3.org/2000/svg"><path d="M40.8186 32C39.8781 37.1202 35.3921 41 30 41C23.9249 41 19 36.0751 19 30C19 23.9249 23.9249 19 30 19C34.664 19 38.65 21.9026 40.2501 26H43.4202C41.6991 20.217 36.342 16 30 16C22.268 16 16 22.268 16 30C16 37.732 22.268 44 30 44C33.3315 44 36.3912 42.8364 38.7948 40.8933C39.492 40.3297 40.1341 39.7005 40.7116 39.015C40.7729 38.9423 40.8335 38.8688 40.8933 38.7948C42.4403 36.8811 43.4933 34.5515 43.8582 32H40.8186Z" fill="black"/><path d="M40.9136 43.0349L46.9393 49.0607C47.5251 49.6464 48.4749 49.6464 49.0607 49.0607C49.6464 48.4749 49.6464 47.5251 49.0607 46.9393L43.0349 40.9136C42.3914 41.6813 41.6813 42.3914 40.9136 43.0349Z" fill="black"/><path d="M40 27.5C39.1716 27.5 38.5 28.1716 38.5 29C38.5 29.8284 39.1716 30.5 40 30.5H45C45.8284 30.5 46.5 29.8284 46.5 29C46.5 28.1716 45.8284 27.5 45 27.5H40Z" fill="black"/></svg>