<?xml version="1.0" ?><svg fill="none" height="64" viewBox="0 0 64 64" width="64" xmlns="http://www.w3.org/2000/svg"><path clip-rule="evenodd" d="M22.8678 15.0161C22.6387 15.2795 22.5 15.6235 22.5 16V32.0997C21.7499 31.7163 20.9002 31.5 20 31.5C16.9624 31.5 14.5 33.9624 14.5 37C14.5 40.0376 16.9624 42.5 20 42.5C23.0376 42.5 25.5 40.0376 25.5 37V26.4271L38.5 32.9271V43.0997C37.7499 42.7163 36.9002 42.5 36 42.5C32.9624 42.5 30.5 44.9624 30.5 48C30.5 51.0376 32.9624 53.5 36 53.5C39.0376 53.5 41.5 51.0376 41.5 48V24C41.5 23.4318 41.179 22.9124 40.6708 22.6584L24.6979 14.6719C24.4894 14.5621 24.252 14.5 24 14.5C23.6254 14.5 23.2829 14.6373 23.02 14.8643C22.9654 14.9114 22.9146 14.9622 22.8678 15.0161ZM22.5 37C22.5 35.6193 21.3807 34.5 20 34.5C18.6193 34.5 17.5 35.6193 17.5 37C17.5 38.3807 18.6193 39.5 20 39.5C21.3807 39.5 22.5 38.3807 22.5 37ZM36 45.5C37.3807 45.5 38.5 46.6193 38.5 48C38.5 49.3807 37.3807 50.5 36 50.5C34.6193 50.5 33.5 49.3807 33.5 48C33.5 46.6193 34.6193 45.5 36 45.5ZM25.5 18.4271V23.073L38.5 29.573V24.9271L25.5 18.4271Z" fill="black" fill-rule="evenodd"/></svg>