<?xml version="1.0" ?><svg fill="none" height="64" viewBox="0 0 64 64" width="64" xmlns="http://www.w3.org/2000/svg"><path clip-rule="evenodd" d="M48 21.3065C48 24.2372 45.6242 26.6129 42.6935 26.6129C41.2603 26.6129 39.9597 26.0447 39.0049 25.1212L27.9772 32.0297L38.7723 39.1182C39.7427 38.0545 41.1402 37.3871 42.6935 37.3871C45.6242 37.3871 48 39.7628 48 42.6935C48 45.6242 45.6242 48 42.6935 48C39.7628 48 37.3871 45.6242 37.3871 42.6935C37.3871 42.4037 37.4103 42.1194 37.455 41.8422L26.1365 34.41C25.3002 36.2423 23.4521 37.5157 21.3065 37.5157C18.3758 37.5157 16 35.1399 16 32.2092C16 29.2785 18.3758 26.9027 21.3065 26.9027C23.3412 26.9027 25.1085 28.0479 25.9989 29.729L37.5239 22.509C37.4344 22.1226 37.3871 21.7201 37.3871 21.3065C37.3871 18.3758 39.7628 16 42.6935 16C45.6242 16 48 18.3758 48 21.3065ZM45 21.3065C45 22.5803 43.9674 23.6129 42.6935 23.6129C41.4197 23.6129 40.3871 22.5803 40.3871 21.3065C40.3871 20.0326 41.4197 19 42.6935 19C43.9674 19 45 20.0326 45 21.3065ZM21.3065 34.5157C22.5803 34.5157 23.6129 33.483 23.6129 32.2092C23.6129 30.9354 22.5803 29.9027 21.3065 29.9027C20.0326 29.9027 19 30.9354 19 32.2092C19 33.483 20.0326 34.5157 21.3065 34.5157ZM45 42.6935C45 43.9674 43.9674 45 42.6935 45C41.4197 45 40.3871 43.9674 40.3871 42.6935C40.3871 41.4197 41.4197 40.3871 42.6935 40.3871C43.9674 40.3871 45 41.4197 45 42.6935Z" fill="black" fill-rule="evenodd"/></svg>